<?xml version="1.0" encoding="UTF-8" standalone="no"?>
<svg
   xmlns:dc="http://purl.org/dc/elements/1.1/"
   xmlns:cc="http://creativecommons.org/ns#"
   xmlns:rdf="http://www.w3.org/1999/02/22-rdf-syntax-ns#"
   xmlns:svg="http://www.w3.org/2000/svg"
   xmlns="http://www.w3.org/2000/svg"
   xmlns:sodipodi="http://sodipodi.sourceforge.net/DTD/sodipodi-0.dtd"
   xmlns:inkscape="http://www.inkscape.org/namespaces/inkscape"
   height="200"
   viewBox="0 0 25 25"
   width="200"
   version="1.1"
   id="svg49"
   sodipodi:docname="favicon.svg"
   inkscape:export-filename="/home/mint/Other/Projects/GitHub/WebDrop/public/favicon.png"
   inkscape:export-xdpi="192"
   inkscape:export-ydpi="192"
   inkscape:version="0.92.3 (2405546, 2018-03-11)">
  <metadata
     id="metadata55">
    <rdf:RDF>
      <cc:Work
         rdf:about="">
        <dc:format>image/svg+xml</dc:format>
        <dc:type
           rdf:resource="http://purl.org/dc/dcmitype/StillImage" />
        <dc:title></dc:title>
      </cc:Work>
    </rdf:RDF>
  </metadata>
  <defs
     id="defs53" />
  <sodipodi:namedview
     pagecolor="#ffffff"
     bordercolor="#666666"
     borderopacity="1"
     objecttolerance="10"
     gridtolerance="10"
     guidetolerance="10"
     inkscape:pageopacity="0"
     inkscape:pageshadow="2"
     inkscape:window-width="1916"
     inkscape:window-height="990"
     id="namedview51"
     showgrid="false"
     inkscape:measure-start="0,0"
     inkscape:measure-end="0,0"
     inkscape:zoom="2.6074563"
     inkscape:cx="-62.480233"
     inkscape:cy="109.37411"
     inkscape:window-x="0"
     inkscape:window-y="56"
     inkscape:window-maximized="0"
     inkscape:current-layer="svg49" />
  <rect
     style="opacity:1;fill:#000000;fill-opacity:1;stroke:#23d160;stroke-width:0.09590245;stroke-miterlimit:4;stroke-dasharray:none;stroke-dashoffset:0;stroke-opacity:1"
     id="rect884"
     width="24.904097"
     height="24.904099"
     x="0.047951225"
     y="0.047950264" />
  <g
     id="g864"
     transform="matrix(1.021613,0,0,1.021613,-0.51501675,1.0625398)">
    <path
       style="fill:#00aa44;fill-opacity:1;stroke-width:0.40400356"
       d="m 5.7592117,15.411333 c 0.023758,0.01706 0.046551,0.03557 0.070547,0.05295 L 3.0187276,16.548043 2.917217,16.489213 3.1426682,15.780444 A 12.12024,12.119974 46.911998 0 0 3.3561574,9.1519548 L 3.2119182,8.5749004 5.9578679,9.7924941 A 14.534591,14.534273 46.911998 0 1 5.7592117,15.411333 Z"
       id="path10-4"
       inkscape:connector-curvature="0" />
    <g
       transform="matrix(0.40400799,0,0,-0.40399914,-0.19394435,25.399359)"
       id="g44"
       style="fill:#9bc9ff">
      <path
         style="fill:#00aa44;fill-opacity:1"
         d="m 49.038,39.082 c -0.045,0.03 -0.088,0.063 -0.133,0.094 l 6.844,2.905 0.251,-0.14 -0.385,-1.274 a 30.011,30.011 0 0 1 0,-17.334 l 0.3,-1 L 49,25.131 a 35.834,35.834 0 0 0 0.038,13.951 z"
         id="path4"
         inkscape:connector-curvature="0" />
      <path
         style="fill:#00aa44;fill-opacity:1"
         d="m 14.962,39.082 c 0.014,-0.071 0.024,-0.142 0.037,-0.213 L 8.084,41.663 8,41.941 9.538,42.796 a 30,30 0 0 1 11.624,11.6 l 0.757,1.356 2.9,-6.842 a 35.969,35.969 0 0 0 -9.857,-9.828 z"
         id="path8"
         inkscape:connector-curvature="0" />
      <path
         style="fill:#00aa44;fill-opacity:1"
         d="m 39.084,49.04 c -0.071,-0.014 -0.143,-0.024 -0.215,-0.038 l 2.794,6.914 0.278,0.084 0.9,-1.606 A 30,30 0 0 1 54.462,42.8 l 1.287,-0.715 -6.844,-2.905 a 35.976,35.976 0 0 0 -9.821,9.86 z"
         id="path10"
         inkscape:connector-curvature="0" />
      <path
         style="fill:#00ff66;fill-opacity:1"
         d="m 32,42.336 a 42.1,42.1 0 0 0 -4.4,0.232 c -0.018,-0.022 -0.037,-0.042 -0.055,-0.064 l -2.718,6.4 c 0.03,0.045 0.063,0.087 0.093,0.132 A 35.876,35.876 0 0 1 38.869,49 l -2.6,-6.445 A 41.937,41.937 0 0 0 32,42.336 Z"
         id="path18"
         inkscape:connector-curvature="0" />
      <path
         style="fill:#00ff66;fill-opacity:1"
         d="m 42.562,36.407 -0.06,0.051 6.4,2.718 c 0.045,-0.031 0.088,-0.064 0.133,-0.094 A 35.834,35.834 0 0 1 49,25.131 l -6.45,2.606 a 41.529,41.529 0 0 0 0.012,8.67 z"
         id="path20"
         inkscape:connector-curvature="0" />
      <path
         style="fill:#00ff66;fill-opacity:1"
         d="m 21.437,36.407 c 0.021,0.016 0.04,0.034 0.061,0.051 l -6.4,2.718 C 15.053,39.145 15.01,39.112 14.965,39.082 A 35.834,35.834 0 0 0 15,25.131 l 6.45,2.606 a 41.461,41.461 0 0 1 -0.013,8.67 z"
         id="path22"
         inkscape:connector-curvature="0" />
      <path
         style="fill:#00ff66;fill-opacity:1"
         d="m 36.4,42.568 c -0.046,0 -0.092,-0.006 -0.139,-0.011 L 38.869,49 c 0.072,0.014 0.144,0.024 0.215,0.038 a 35.976,35.976 0 0 1 9.821,-9.864 l -6.4,-2.718 A 41.635,41.635 0 0 0 36.4,42.568 Z"
         id="path24"
         inkscape:connector-curvature="0" />
      <path
         style="fill:#00ff66;fill-opacity:1"
         d="m 24.823,48.908 2.718,-6.4 a 41.587,41.587 0 0 0 -6.1,-6.1 c 0.006,-0.048 0.007,-0.1 0.012,-0.144 L 15,38.869 c -0.013,0.071 -0.023,0.142 -0.037,0.213 a 35.969,35.969 0 0 1 9.86,9.826 z"
         id="path26"
         inkscape:connector-curvature="0" />
      <path
         style="fill:none;fill-opacity:1"
         d="m 21.489,27.538 -0.052,0.045 a 41.556,41.556 0 0 1 0.012,8.68 L 32,32 Z"
         id="path28"
         inkscape:connector-curvature="0" />
      <path
         style="fill:none;fill-opacity:1"
         d="m 21.449,36.263 c -0.005,0.048 -0.006,0.1 -0.012,0.144 a 41.587,41.587 0 0 1 6.1,6.1 L 32,32 Z"
         id="path30"
         inkscape:connector-curvature="0" />
      <path
         style="fill:none;fill-opacity:1"
         d="m 36.265,42.557 c 0.047,0 0.093,0.006 0.139,0.011 a 41.635,41.635 0 0 1 6.1,-6.11 L 32,32 Z"
         id="path32"
         inkscape:connector-curvature="0" />
      <path
         style="fill:none;fill-opacity:1"
         d="m 32,32 10.5,4.458 0.06,-0.051 a 41.529,41.529 0 0 1 -0.011,-8.67 z"
         id="path38"
         inkscape:connector-curvature="0" />
      <path
         style="fill:none;fill-opacity:1"
         d="m 32,42.336 a 41.937,41.937 0 0 1 4.265,0.221 L 32,32 27.541,42.5 c 0.018,0.022 0.037,0.042 0.055,0.064 A 42.1,42.1 0 0 1 32,42.336 Z"
         id="path40"
         inkscape:connector-curvature="0" />
      <path
         style="fill:#00aa44;fill-opacity:1;stroke-width:1"
         d="m 24.685232,49.013658 c -0.04318,-0.05806 -0.0898,-0.113849 -0.133727,-0.172591 l -2.575235,6.998432 0.149489,0.248988 1.745557,-0.584953 a 30.000441,29.999559 66.100278 0 1 16.396745,-0.780617 l 1.433644,0.335026 -3.117924,-6.749781 a 35.976529,35.97547 66.080972 0 0 -13.898549,0.705496 z"
         id="path10-1"
         inkscape:connector-curvature="0" />
    </g>
    <path
       sodipodi:nodetypes="cccccccssssscccccccccccccccccccccccccccccccccccccccccccccscccccccccccccccccccccccccccccccccccccccccccccccccccccccccccc"
       d="m 24.420647,7.9498274 -1.623708,0.689224 -0.13494,0.447631 c -0.66822,2.2070006 -0.66822,4.5624066 0,6.7694076 l 0.06545,0.216948 1.770363,0.715483 c 0.513884,0.195475 0.202857,0.965339 -0.302604,0.749014 -3.653806,-1.574787 -3.007084,-1.270076 -6.866354,-2.802165 -0.553803,-0.219854 -4.212502,-1.532058 -4.687666,-1.722335 -0.563774,-0.225759 0.593549,0.06649 0.106062,0.07353 -0.499822,0.0072 0.484757,-0.303489 0.03681,-0.104116 -0.470993,0.20963 -2.371383,0.933844 -2.768286,1.11366 -2.4590505,1.114068 -0.7947481,0.323904 -6.9017018,2.897641 L 1.3635049,17.736705 C 0.86373761,17.956832 0.54236985,17.199309 1.0479747,16.992941 l 1.623708,-0.689222 0.1349388,-0.447631 c 0.6682197,-2.207001 0.6682197,-4.562407 0,-6.7694076 L 2.7411735,8.8697314 0.97081134,8.1542484 c -0.4115144,-0.166498 -0.29241993,-0.778473 0.15150226,-0.778505 0.051781,1.67e-4 0.103058,0.01018 0.151099,0.0295 l 1.6342127,0.66013 0.5559154,-0.308654 C 5.3687396,6.6986924 6.9408528,5.1299714 8.0029743,3.2270804 L 8.2122503,2.8521705 7.4688764,1.1008325 C 7.2486594,0.60104347 8.0063178,0.27963247 8.2126548,0.78530947 l 0.6892361,1.62367603 0.4476409,0.134935 c 2.2070062,0.6684949 4.5625512,0.6684949 6.7695572,0 l 0.216952,-0.06545 0.715499,-1.77032403 c 0.195467,-0.513899 0.965387,-0.202865 0.749031,0.30259603 l -0.660149,1.633772 0.323207,0.5829719 c 1.062799,1.902961 2.635616,3.471547 4.541452,4.529234 l 0.347449,0.193111 1.752586,-0.743762 c 0.491907,-0.200685 0.801691,0.529536 0.315529,0.743762 z m -2.583228,1.096454 -1.848336,0.784566 c -0.324199,1.6920216 -0.333511,3.4293296 -0.02747,5.1247296 l 1.822479,0.736086 c -0.583301,-2.179219 -0.564868,-4.475807 0.05334,-6.6453816 z M 11.678639,12.479062 8.9257274,11.368468 c 0.048756,0.760278 0.047005,1.522954 -0.00524,2.283 z M 11.98124,11.729644 10.816082,8.9848744 C 10.310759,9.5588644 9.7679275,10.098714 9.1911613,10.60087 Z m 0.743779,-0.315523 1.113446,-2.7556786 c -0.368455,0.02342 -0.737718,0.04041 -1.104153,0.04041 -0.392292,0 -0.787009,-0.01818 -1.18132,-0.04484 z m 0.749435,0.302595 2.74483,-1.165133 C 15.645276,10.046132 15.105414,9.5031784 14.603252,8.9262934 Z m 0.315531,0.743761 2.752909,1.112211 c -0.04874,-0.760279 -0.04697,-1.522954 0.0053,-2.282999 z m -5.7086343,1.546107 c 0.092661,-0.990214 0.095244,-1.986794 0.00772,-2.977475 L 6.3849663,10.34231 c 0.2117259,1.457942 0.2043727,2.939339 -0.021816,4.395107 z M 8.3463802,10.261512 C 9.1145664,9.6249724 9.823162,8.9197724 10.463381,8.1546554 L 9.7398045,6.4517994 C 8.8564292,7.6393104 7.8002251,8.6878654 6.6063182,9.5625934 Z M 11.199081,7.8157014 c 0.990946,0.09188 1.988146,0.09449 2.979559,0.0078 l 0.686814,-1.702452 c -1.458264,0.213378 -2.940342,0.206022 -4.396416,-0.02182 z m 3.745963,0.267042 c 0.636605,0.768358 1.341666,1.477324 2.106497,2.1181676 L 18.754032,9.4773494 C 17.567523,8.5932534 16.52004,7.5365334 15.646401,6.3423154 Z m 2.444248,2.8526376 c -0.09262,0.990082 -0.09517,1.986528 -0.0076,2.97707 l 1.704103,0.686799 c -0.212062,-1.457908 -0.204836,-2.939336 0.02144,-4.395106 z m -13.7580887,4.96111 1.8483364,-0.784566 c 0.324199,-1.692022 0.3335118,-3.429329 0.027471,-5.1247286 L 3.6845321,9.2511094 c 0.5833066,2.1792166 0.5648782,4.4758046 -0.053324,6.6453816 z m 0.2387684,-7.4420676 1.8560125,0.749822 c 1.4280263,-0.96983 2.6651441,-2.194458 3.6494044,-3.612561 L 8.6077737,3.7858084 c -1.1290108,1.955234 -2.7661536,3.568469 -4.737802,4.668615 z m 8.8643403,-4.601147 c -1.158656,-0.0024 -2.311376,-0.165544 -3.4251811,-0.4848 l 0.7841801,1.84749 c 1.692808,0.319387 3.429563,0.328556 5.125649,0.02706 l 0.735699,-1.821229 c -1.050109,0.283295 -2.132699,0.428344 -3.220347,0.431472 z m 4.02594,-0.231895 -0.0084,-0.01535 -0.749839,1.855973 c 0.969298,1.42823 2.193233,2.665832 3.61062,3.65094 l 1.80632,-0.767598 C 19.46923,7.2186384 17.85976,5.5865924 16.760336,3.6213844 Z"
       id="path46"
       inkscape:connector-curvature="0"
       style="fill:#23d160;fill-opacity:1;stroke:none;stroke-width:0.40400356;stroke-opacity:1" />
    <path
       sodipodi:nodetypes="ccc"
       inkscape:connector-curvature="0"
       id="path835"
       d="M 2.9103297,16.909856 12.711864,13.051369 23.30676,16.741807"
       style="fill:none;fill-opacity:1;stroke:#23d160;stroke-width:0.125px;stroke-linecap:butt;stroke-linejoin:miter;stroke-opacity:1" />
    <circle
       style="fill:#23d160;fill-opacity:1;stroke-width:0.00768011"
       id="circle2"
       r="0.43095401"
       cy="19.795708"
       cx="12.818911" />
    <path
       style="fill:#00aa44;fill-opacity:1;stroke-width:0.00768011"
       id="path4-3"
       d="m 12.818909,19.795705 c -0.05535,0 -0.111965,0.0052 -0.168279,0.01559 -0.0042,7.76e-4 -0.0085,0.0012 -0.01265,0.0012 -0.03015,0 -0.05511,-0.01913 -0.06211,-0.04758 -0.0069,-0.02788 -0.01027,-0.05654 -0.01027,-0.0852 0,-0.07409 0.02186,-0.145554 0.06318,-0.206672 l 0.0595,-0.08795 c -0.174099,0.05535 -0.300276,0.218223 -0.300276,0.410655 0,0.238007 0.192947,0.430954 0.430954,0.430954 0.205136,0 0.376478,-0.143465 0.419971,-0.335451 -0.133164,-0.06305 -0.274333,-0.0955 -0.419963,-0.0955 z"
       inkscape:connector-curvature="0" />
    <circle
       style="fill:#23d160;fill-opacity:1;stroke-width:0.00768011"
       id="circle6"
       r="0.80034423"
       cy="20.78075"
       cx="12.818911" />
    <path
       inkscape:connector-curvature="0"
       id="path869"
       d="M 12.665609,11.503986 12.8135,19.316713"
       style="fill:none;fill-opacity:1;stroke:#23d160;stroke-width:0.1278671;stroke-linecap:butt;stroke-linejoin:miter;stroke-miterlimit:4;stroke-dasharray:none;stroke-opacity:1" />
    <path
       style="fill:#00aa44;fill-opacity:1;stroke-width:0.00768011"
       id="path8-9"
       d="m 13.034382,21.365612 c -0.442014,0 -0.800345,-0.358322 -0.800345,-0.800344 0,-0.165936 0.05052,-0.320061 0.136991,-0.447881 -0.212654,0.143864 -0.352464,0.387278 -0.352464,0.663354 0,0.442013 0.358324,0.800344 0.800345,0.800344 0.276077,0 0.51949,-0.139808 0.663354,-0.352463 -0.12782,0.08647 -0.281945,0.13699 -0.447881,0.13699 z"
       inkscape:connector-curvature="0" />
    <path
       style="fill:#23d160;fill-opacity:1;stroke-width:0.00768011"
       id="path10-9"
       d="M 14.770463,20.742472 14.277946,20.18839 c -0.0086,-0.0097 -0.02024,-0.01619 -0.03302,-0.01845 l -0.776712,-0.137427 0.532977,-0.119022 c 0.0095,-0.0022 0.0184,-0.0066 0.02571,-0.01316 l 0.554082,-0.492518 c 0.0091,-0.0081 0.01533,-0.01873 0.01796,-0.03056 l 0.123132,-0.554095 c 0.0069,-0.03105 -0.01267,-0.06183 -0.04373,-0.06872 -0.03105,-0.0069 -0.06183,0.01268 -0.06872,0.04373 l -0.119081,0.535902 -0.529007,0.47023 -0.50542,0.11287 0.388568,-0.388567 c 0.0094,-0.0094 0.01526,-0.02176 0.01659,-0.03499 l 0.06156,-0.615654 c 9.67e-4,-0.0097 -5.41e-4,-0.01947 -0.0044,-0.02842 l -0.184699,-0.430953 c -0.01253,-0.02924 -0.0464,-0.04277 -0.07563,-0.03026 -0.02924,0.01253 -0.04279,0.0464 -0.03026,0.07563 l 0.178846,0.417298 -0.05804,0.580418 -0.456829,0.456827 c 0.01027,-0.03978 0.01561,-0.08098 0.01561,-0.122813 0,-0.193661 -0.11327,-0.361371 -0.277038,-0.440354 v -0.113729 c 0,-0.03182 -0.02579,-0.0576 -0.0576,-0.0576 -0.03181,0 -0.0576,0.02579 -0.0576,0.0576 v 0.07511 c -0.03115,-0.0063 -0.06334,-0.0095 -0.09632,-0.0095 -0.03298,0 -0.06515,0.0034 -0.09632,0.0095 v -0.07511 c 0,-0.03182 -0.02579,-0.0576 -0.0576,-0.0576 -0.03181,0 -0.0576,0.02579 -0.0576,0.0576 v 0.113729 c -0.163771,0.07898 -0.277037,0.246686 -0.277037,0.440354 0,0.04186 0.0053,0.08305 0.01562,0.122822 l -0.456836,-0.456836 -0.05804,-0.580418 0.178847,-0.417298 c 0.01253,-0.02924 -0.001,-0.0631 -0.03026,-0.07563 -0.02924,-0.01253 -0.0631,0.001 -0.07563,0.03026 l -0.184699,0.430953 c -0.0039,0.0089 -0.0053,0.01873 -0.0043,0.02842 l 0.06156,0.615654 c 0.0013,0.01323 0.0071,0.02559 0.01659,0.03499 L 12.181738,19.91717 11.676317,19.8043 11.14731,19.33407 11.028217,18.798175 c -0.0069,-0.03105 -0.03765,-0.05065 -0.06872,-0.04373 -0.03105,0.0069 -0.05063,0.03768 -0.04373,0.06872 l 0.123128,0.55409 c 0.0027,0.01184 0.0089,0.02251 0.01796,0.03056 l 0.554081,0.492517 c 0.0074,0.0065 0.01615,0.011 0.02571,0.01316 l 0.532977,0.119022 -0.776713,0.13742 c -0.01277,0.0023 -0.0244,0.0088 -0.03301,0.01845 l -0.49251,0.554082 c -0.0094,0.01051 -0.01455,0.02417 -0.01455,0.03827 v 0.554089 c 0,0.03182 0.02579,0.0576 0.0576,0.0576 0.03182,0 0.0576,-0.02579 0.0576,-0.0576 v -0.532177 l 0.464662,-0.522746 0.732575,-0.12961 -0.796381,0.584012 c -0.0148,0.01087 -0.02354,0.02811 -0.02354,0.04645 v 0.615653 c 0,0.0089 0.0021,0.01776 0.006,0.02576 l 0.246255,0.492518 c 0.01015,0.02018 0.03043,0.03185 0.05156,0.03185 0.0087,0 0.01744,-0.0019 0.02571,-0.006 0.02846,-0.01422 0.03998,-0.04882 0.02576,-0.07727 L 11.460468,21.382913 V 20.810046 L 12.0696,20.363355 c -0.06918,0.123649 -0.108678,0.266039 -0.108678,0.417506 0,0.473071 0.384874,0.857945 0.857938,0.857945 0.473064,0 0.857938,-0.384874 0.857938,-0.857945 0,-0.14974 -0.03841,-0.29212 -0.107228,-0.416446 l 0.607681,0.445631 v 0.572867 l -0.240173,0.480352 c -0.01423,0.02846 -0.0027,0.06305 0.02576,0.07727 0.0082,0.0041 0.01706,0.006 0.02571,0.006 0.02113,0 0.04147,-0.01172 0.05156,-0.03185 l 0.246255,-0.492519 c 0.004,-0.008 0.006,-0.01681 0.006,-0.02576 v -0.61566 c 0,-0.01834 -0.0087,-0.0356 -0.02354,-0.04645 l -0.796389,-0.584011 0.732575,0.12961 0.46467,0.522746 v 0.532185 c 0,0.03182 0.02579,0.0576 0.0576,0.0576 0.03181,0 0.0576,-0.02579 0.0576,-0.0576 v -0.554089 c 0,-0.01411 -0.0052,-0.02772 -0.01456,-0.03827 z m -1.951554,0.781013 c -0.409549,0 -0.742736,-0.333194 -0.742736,-0.742744 0,-0.409549 0.333194,-0.742735 0.742782,-0.742735 0.03181,0 0.05758,-0.02579 0.05758,-0.0576 0,-0.03182 -0.02581,-0.0576 -0.05761,-0.0576 -0.113668,0 -0.222224,0.02227 -0.321596,0.0626 -0.03391,-0.05731 -0.05175,-0.122375 -0.05175,-0.189699 0,-0.205866 0.167489,-0.373353 0.373353,-0.373353 0.205866,0 0.373353,0.167487 0.373353,0.373353 0,0.06722 -0.01783,0.13226 -0.05167,0.18953 -0.0189,-0.0076 -0.03811,-0.01472 -0.05773,-0.02106 -0.03028,-0.0098 -0.06274,0.0069 -0.07251,0.03711 -0.0098,0.03027 0.0069,0.06274 0.03711,0.07251 0.307565,0.09935 0.514214,0.383444 0.514214,0.706938 -2.3e-5,0.409557 -0.33321,0.742744 -0.742759,0.742744 z"
       inkscape:connector-curvature="0" />
  </g>
</svg>
